<svg width="16" height="16" viewBox="0 0 16 16" fill="none" xmlns="http://www.w3.org/2000/svg">
<g clip-path="url(#clip0_30065_6395)">
<path fill-rule="evenodd" clip-rule="evenodd" d="M11.666 6.33301C12.0342 6.33301 12.3327 6.63148 12.3327 6.99967V14.4997C12.3327 14.8679 12.0342 15.1663 11.666 15.1663C11.2978 15.1663 10.9993 14.8679 10.9993 14.4997L10.9993 6.99967C10.9993 6.63148 11.2978 6.33301 11.666 6.33301Z" fill="white"/>
<path fill-rule="evenodd" clip-rule="evenodd" d="M11.666 0.833008C12.0342 0.833008 12.3327 1.13148 12.3327 1.49967V3.49967C12.3327 3.86786 12.0342 4.16634 11.666 4.16634C11.2978 4.16634 10.9993 3.86786 10.9993 3.49967V1.49967C10.9993 1.13148 11.2978 0.833008 11.666 0.833008Z" fill="white"/>
<path fill-rule="evenodd" clip-rule="evenodd" d="M7.99935 4.83301C7.99935 3.72844 8.89478 2.83301 9.99935 2.83301H13.3327C14.4373 2.83301 15.3327 3.72844 15.3327 4.83301V5.66634C15.3327 6.77091 14.4373 7.66634 13.3327 7.66634H9.99935C8.89478 7.66634 7.99935 6.77091 7.99935 5.66634V4.83301ZM9.99935 4.16634C9.63116 4.16634 9.33268 4.46482 9.33268 4.83301V5.66634C9.33268 6.03453 9.63116 6.33301 9.99935 6.33301H13.3327C13.7009 6.33301 13.9993 6.03453 13.9993 5.66634V4.83301C13.9993 4.46482 13.7009 4.16634 13.3327 4.16634H9.99935Z" fill="white"/>
<path fill-rule="evenodd" clip-rule="evenodd" d="M4.33268 11.833C4.70087 11.833 4.99935 12.1315 4.99935 12.4997V14.4997C4.99935 14.8679 4.70087 15.1663 4.33268 15.1663C3.96449 15.1663 3.66602 14.8679 3.66602 14.4997V12.4997C3.66602 12.1315 3.96449 11.833 4.33268 11.833Z" fill="white"/>
<path fill-rule="evenodd" clip-rule="evenodd" d="M4.33268 0.833008C4.70087 0.833008 4.99935 1.13148 4.99935 1.49967V8.99967C4.99935 9.36786 4.70087 9.66634 4.33268 9.66634C3.96449 9.66634 3.66602 9.36786 3.66602 8.99967V1.49967C3.66602 1.13148 3.96449 0.833008 4.33268 0.833008Z" fill="white"/>
<path fill-rule="evenodd" clip-rule="evenodd" d="M0.666016 10.333C0.666016 9.22844 1.56145 8.33301 2.66602 8.33301H5.99935C7.10392 8.33301 7.99935 9.22844 7.99935 10.333V11.1663C7.99935 12.2709 7.10392 13.1663 5.99935 13.1663H2.66602C1.56145 13.1663 0.666016 12.2709 0.666016 11.1663V10.333ZM2.66602 9.66634C2.29783 9.66634 1.99935 9.96482 1.99935 10.333V11.1663C1.99935 11.5345 2.29783 11.833 2.66602 11.833H5.99935C6.36754 11.833 6.66602 11.5345 6.66602 11.1663V10.333C6.66602 9.96482 6.36754 9.66634 5.99935 9.66634H2.66602Z" fill="white"/>
</g>
<defs>
<clipPath id="clip0_30065_6395">
<rect width="16" height="16" fill="white"/>
</clipPath>
</defs>
</svg>
