<svg width="16" height="17" viewBox="0 0 16 17" fill="none" xmlns="http://www.w3.org/2000/svg">
<path d="M8.66797 4.83268C8.66797 4.46449 8.36949 4.16602 8.0013 4.16602C7.63311 4.16602 7.33463 4.46449 7.33463 4.83268V8.49935C7.33463 8.67616 7.40487 8.84573 7.5299 8.97075L9.5299 10.9708C9.79025 11.2311 10.2124 11.2311 10.4727 10.9708C10.7331 10.7104 10.7331 10.2883 10.4727 10.0279L8.66797 8.22321V4.83268Z" fill="#787A80"/>
<path fill-rule="evenodd" clip-rule="evenodd" d="M8.0013 1.16602C3.95121 1.16602 0.667969 4.44926 0.667969 8.49935C0.667969 12.5494 3.95121 15.8327 8.0013 15.8327C12.0514 15.8327 15.3346 12.5494 15.3346 8.49935C15.3346 4.44926 12.0514 1.16602 8.0013 1.16602ZM2.0013 8.49935C2.0013 5.18564 4.68759 2.49935 8.0013 2.49935C11.315 2.49935 14.0013 5.18564 14.0013 8.49935C14.0013 11.8131 11.315 14.4993 8.0013 14.4993C4.68759 14.4993 2.0013 11.8131 2.0013 8.49935Z" fill="#787A80"/>
</svg>
