<?xml version="1.0" standalone="no"?>
<!DOCTYPE svg PUBLIC "-//W3C//DTD SVG 20010904//EN"
 "http://www.w3.org/TR/2001/REC-SVG-20010904/DTD/svg10.dtd">
<svg version="1.0" xmlns="http://www.w3.org/2000/svg"
 width="500.000000pt" height="500.000000pt" viewBox="0 0 500.000000 500.000000"
 preserveAspectRatio="xMidYMid meet">

<g transform="translate(0.000000,500.000000) scale(0.100000,-0.100000)"
fill="#000000" stroke="none">
<path d="M2055 4410 c-181 -4 -287 -10 -320 -20 -100 -27 -168 -87 -217 -192
-29 -60 -40 -72 -121 -129 -283 -200 -498 -461 -643 -782 -231 -510 -218
-1129 33 -1631 63 -126 149 -256 169 -256 15 0 16 2 2 18 -68 77 -215 376
-262 532 -173 572 -72 1179 278 1670 71 100 293 326 386 393 36 26 74 54 85
62 10 8 22 15 26 15 3 0 4 -44 1 -98 -9 -193 56 -355 228 -563 49 -59 214
-226 270 -274 29 -25 283 -215 343 -257 16 -12 17 -17 6 -41 -7 -15 -16 -27
-21 -27 -4 0 -8 -4 -8 -10 0 -23 17 -7 39 38 13 26 30 59 38 74 7 14 13 59 14
100 1 63 2 68 10 37 4 -20 24 -63 43 -95 19 -32 40 -77 46 -99 24 -78 29 -83
29 -32 1 33 -7 63 -25 97 -14 27 -22 55 -18 61 4 7 3 9 -3 6 -6 -4 -13 4 -15
18 -5 23 -2 22 46 -18 61 -52 136 -103 165 -112 12 -3 19 -11 16 -16 -3 -5 0
-6 7 -4 8 3 22 -1 32 -8 18 -13 18 -16 2 -59 -22 -58 -18 -130 7 -134 10 -1
26 -9 35 -18 10 -8 51 -26 92 -39 260 -84 569 -101 747 -41 61 21 167 90 215
140 20 22 49 64 65 94 24 47 28 70 31 153 3 82 0 112 -22 190 -54 188 -141
335 -309 519 -276 302 -492 461 -818 602 -66 28 -243 84 -314 99 l-70 14 55 7
c30 3 121 2 202 -4 339 -23 634 -125 929 -321 98 -65 155 -113 269 -228 86
-86 173 -185 212 -241 74 -104 169 -281 217 -403 39 -99 97 -317 110 -420 64
-471 -43 -939 -301 -1319 -32 -48 -36 -58 -21 -58 12 0 38 34 80 103 131 218
199 391 255 647 26 121 36 452 18 598 -39 315 -182 662 -380 922 -127 166
-331 351 -515 467 -137 86 -374 186 -542 229 -214 54 -288 58 -908 44z m881
-667 c45 -29 144 -132 154 -159 6 -14 10 -61 10 -104 l0 -79 33 -9 c24 -6 35
-16 44 -43 17 -50 15 -100 -6 -132 -31 -47 -56 -59 -106 -51 -41 6 -45 5 -45
-15 0 -11 -5 -21 -11 -21 -5 0 -8 -4 -5 -9 6 -9 -12 -72 -23 -81 -13 -11 -49
-67 -70 -109 -31 -59 -73 -76 -147 -60 -31 7 -51 16 -47 22 3 6 1 7 -5 3 -15
-9 -147 74 -214 136 -46 43 -59 63 -72 109 -17 57 -23 145 -14 189 13 61 115
238 213 367 61 80 98 98 191 88 44 -5 64 -3 70 6 5 9 10 6 15 -8 4 -12 20 -29
35 -40z m-595 -365 c-22 -40 -21 -109 3 -156 20 -38 7 -41 -28 -8 -20 18 -26
33 -26 65 0 62 32 130 62 131 4 0 -1 -15 -11 -32z m899 -38 c0 -5 -4 -10 -10
-10 -5 0 -10 5 -10 10 0 6 5 10 10 10 6 0 10 -4 10 -10z m-853 -222 c-3 -8 -6
-5 -6 6 -1 11 2 17 5 13 3 -3 4 -12 1 -19z"/>
<path d="M2613 3576 l-28 -25 55 6 c52 5 58 3 115 -36 53 -36 61 -39 72 -25
18 24 8 36 -57 72 -72 39 -118 42 -157 8z"/>
<path d="M2963 3493 c-15 -3 -23 -12 -23 -25 0 -19 4 -20 43 -13 55 10 81 8
85 -5 8 -22 23 -9 20 18 -3 25 -6 27 -53 28 -27 1 -60 0 -72 -3z"/>
<path d="M2753 3103 c-41 -21 -41 -32 0 -70 76 -69 131 -71 165 -6 17 31 15
50 -8 73 -25 25 -110 26 -157 3z"/>
<path d="M980 3363 c0 -5 30 -24 68 -43 l67 -35 -75 -8 c-149 -16 -151 -21
-40 -77 122 -61 135 -45 15 18 l-50 27 89 10 c53 6 91 15 93 22 3 7 -30 29
-76 53 -85 42 -91 44 -91 33z"/>
<path d="M4100 3122 c-47 -14 -87 -27 -88 -28 -2 -1 2 -20 8 -41 24 -72 61
-92 99 -52 11 12 24 18 30 14 17 -10 50 4 62 26 10 19 -3 84 -20 100 -3 3 -44
-5 -91 -19z m90 -14 c0 -7 3 -23 6 -35 4 -15 0 -24 -14 -32 -23 -12 -47 3 -57
37 -5 17 -1 24 17 31 33 14 48 13 48 -1z m-74 -55 c5 -25 2 -33 -14 -42 -28
-15 -49 -5 -61 31 -6 17 -11 32 -11 34 0 7 66 21 72 15 4 -4 10 -21 14 -38z"/>
<path d="M890 3103 c-44 -17 -62 -61 -44 -108 9 -21 76 -55 112 -55 69 0 96
88 41 134 -17 14 -36 26 -42 26 -7 0 -21 2 -32 5 -11 2 -27 1 -35 -2z m90 -38
c34 -17 45 -46 30 -75 -14 -27 -51 -35 -95 -20 -49 16 -70 49 -54 84 10 22 19
26 51 26 21 0 52 -7 68 -15z"/>
<path d="M4133 2889 c-63 -18 -82 -81 -37 -126 22 -22 32 -25 75 -21 100 10
137 102 58 143 -31 17 -49 17 -96 4z m105 -31 c13 -12 16 -46 4 -65 -10 -16
-57 -33 -92 -33 -53 0 -80 59 -42 93 29 26 99 29 130 5z"/>
<path d="M792 2848 c4 -12 177 -52 186 -43 10 10 -8 17 -90 36 -99 22 -101 22
-96 7z"/>
<path d="M760 2701 c0 -5 21 -13 46 -17 34 -5 44 -10 40 -21 -3 -8 -6 -30 -6
-49 0 -34 0 -34 -45 -34 -25 0 -45 -4 -45 -9 0 -8 94 -21 156 -21 49 0 42 18
-8 22 -24 2 -42 6 -40 11 1 4 2 28 2 53 l0 46 50 -7 c33 -5 50 -3 50 4 0 13
-23 18 -122 26 -51 4 -78 3 -78 -4z"/>
<path d="M4122 2630 c-40 -16 -52 -92 -19 -118 7 -5 49 -13 95 -16 71 -6 82
-5 82 8 0 13 -14 16 -78 16 -82 0 -102 9 -102 45 0 36 20 45 102 45 82 0 104
13 41 24 -51 8 -93 7 -121 -4z"/>
<path d="M772 2434 c-29 -20 -31 -83 -2 -109 30 -27 64 -8 82 46 17 51 39 69
62 50 22 -19 20 -57 -5 -80 -11 -10 -16 -22 -11 -25 17 -10 46 34 45 70 -1 41
-18 64 -47 64 -33 0 -45 -13 -59 -61 -10 -36 -17 -45 -39 -47 -19 -2 -28 2
-33 17 -8 28 3 61 21 61 8 0 14 7 14 15 0 19 0 19 -28 -1z"/>
<path d="M4250 2354 l0 -27 -67 7 c-38 3 -79 9 -92 13 -18 4 -22 2 -19 -8 3
-8 26 -17 54 -21 117 -16 117 -16 110 -49 -3 -16 -2 -29 3 -29 5 0 12 19 16
43 3 23 8 54 11 70 3 16 1 27 -5 27 -6 0 -11 -12 -11 -26z"/>
<path d="M905 2208 c-120 -74 -127 -80 -118 -89 8 -8 158 -39 191 -39 7 0 10
5 7 10 -3 6 -15 10 -26 10 -40 0 -52 81 -16 110 38 32 14 30 -38 -2z m1 -63
c4 -14 5 -28 3 -30 -7 -6 -89 7 -89 14 0 9 52 40 67 41 7 0 15 -11 19 -25z"/>
<path d="M4030 2162 c0 -6 162 -53 183 -52 45 1 -122 61 -170 60 -7 0 -13 -3
-13 -8z"/>
<path d="M3996 2019 c-14 -11 -26 -27 -26 -35 0 -8 -11 -20 -25 -26 -30 -14
-34 -32 -4 -23 15 5 25 1 36 -15 19 -27 71 -50 112 -50 20 0 36 8 50 26 38 49
22 95 -42 125 -54 24 -68 24 -101 -2z m103 -23 c36 -17 47 -40 35 -73 -11 -33
-38 -40 -90 -23 -63 21 -83 89 -31 110 23 9 46 5 86 -14z"/>
<path d="M924 1944 c19 -49 17 -60 -9 -72 -38 -18 -42 -16 -55 26 -12 37 -30
65 -30 47 0 -20 36 -110 43 -108 119 32 240 89 145 68 -58 -12 -61 -11 -71 23
-6 17 -14 32 -20 32 -5 0 -6 -7 -3 -16z"/>
<path d="M3883 1795 c-30 -21 -40 -71 -18 -96 24 -25 125 -82 133 -74 8 7 -5
17 -72 57 -54 32 -64 50 -46 84 18 33 41 30 111 -11 65 -38 69 -39 69 -26 0
12 -118 81 -138 81 -10 0 -27 -7 -39 -15z"/>
<path d="M3737 1583 c-46 -57 -39 -73 8 -18 l34 40 25 -25 26 -26 -25 -34
c-33 -44 -22 -53 13 -10 28 33 28 33 55 15 l27 -17 -30 -41 c-16 -22 -27 -43
-24 -46 6 -7 73 70 74 84 0 9 -65 65 -130 112 -13 9 -22 4 -53 -34z"/>
<path d="M1578 1333 c9 -3 12 -43 12 -148 0 -128 -2 -144 -17 -148 -10 -3 20
-5 67 -4 47 0 73 2 58 4 l-28 4 0 145 c0 143 0 144 23 143 36 -1 56 -13 77
-44 17 -25 20 -27 20 -10 0 11 -3 30 -6 43 -6 21 -11 22 -113 21 -58 0 -100
-3 -93 -6z"/>
<path d="M1838 1193 c2 -112 0 -148 -10 -154 -8 -5 14 -8 52 -8 36 0 59 3 53
6 -10 3 -13 43 -13 148 0 128 2 144 18 148 9 3 -10 5 -43 6 l-60 1 3 -147z"/>
<path d="M1983 1333 c15 -4 17 -20 17 -148 0 -128 -2 -144 -17 -148 -10 -3 14
-5 52 -5 39 0 64 2 58 5 -10 3 -13 43 -13 149 l0 144 25 0 c43 0 61 -72 30
-118 -12 -16 -13 -27 -5 -41 5 -11 10 -38 10 -61 0 -62 14 -80 60 -80 21 0 42
5 45 10 3 6 -1 10 -9 10 -11 0 -16 14 -18 57 -3 50 -6 59 -28 70 l-24 12 26
10 c28 10 38 29 38 69 0 40 -13 53 -61 63 -45 8 -219 11 -186 2z"/>
<path d="M2298 1333 c9 -3 12 -38 12 -126 0 -67 4 -127 8 -133 20 -29 59 -44
112 -43 53 1 54 2 16 9 -21 4 -42 13 -47 21 -14 23 -11 266 4 272 6 3 -17 5
-53 5 -36 0 -59 -2 -52 -5z"/>
<path d="M2523 1333 c9 -2 23 -2 30 0 6 3 -1 5 -18 5 -16 0 -22 -2 -12 -5z"/>
<path d="M2600 1316 c0 -13 -3 -31 -6 -40 -11 -27 11 -17 29 14 12 20 28 31
53 36 19 3 37 4 40 1 3 -3 -17 -54 -44 -113 -28 -60 -57 -126 -65 -146 l-16
-38 110 0 c100 0 109 2 109 19 0 10 3 34 6 52 l6 34 -20 -31 c-26 -41 -60 -64
-94 -64 l-27 0 65 142 c35 78 64 146 64 150 0 4 -47 8 -105 8 -104 0 -105 0
-105 -24z"/>
<path d="M2930 1322 c-20 -10 -42 -32 -52 -52 -21 -42 -24 -144 -4 -178 15
-28 64 -62 89 -62 17 0 17 1 3 16 -24 23 -28 53 -24 159 3 87 5 99 27 116 29
24 8 25 -39 1z"/>
<path d="M3029 1323 c20 -16 25 -31 29 -95 6 -94 -4 -162 -26 -185 -16 -15
-15 -16 13 -9 62 16 95 68 95 151 0 86 -35 139 -101 151 l-34 7 24 -20z"/>
<path d="M3188 1334 c6 -3 12 -13 12 -21 0 -9 3 -13 7 -10 3 4 39 -55 79 -130
67 -128 74 -138 103 -141 l31 -3 -2 148 -2 148 -5 -105 -6 -105 -57 110 -56
110 -59 2 c-32 1 -52 0 -45 -3z"/>
<path d="M3403 1333 c9 -2 23 -2 30 0 6 3 -1 5 -18 5 -16 0 -22 -2 -12 -5z"/>
<path d="M2534 1215 c0 -60 1 -84 3 -52 2 32 2 81 0 110 -2 29 -3 3 -3 -58z"/>
<path d="M1721 1202 c-21 -23 -22 -26 -6 -34 9 -5 20 -19 25 -31 7 -17 9 -8 9
36 1 31 0 57 -1 56 -2 -1 -14 -13 -27 -27z"/>
<path d="M2499 1053 c-13 -16 -12 -17 4 -4 16 13 21 21 13 21 -2 0 -10 -8 -17
-17z"/>
<path d="M3193 1033 c9 -2 23 -2 30 0 6 3 -1 5 -18 5 -16 0 -22 -2 -12 -5z"/>
<path d="M1500 860 c34 -27 249 -133 335 -165 114 -43 322 -92 446 -105 143
-16 429 -8 552 15 137 25 311 78 436 134 141 63 263 134 238 139 -10 2 -39 -9
-65 -24 -116 -69 -310 -150 -437 -184 -491 -129 -970 -73 -1412 166 -88 47
-139 60 -93 24z"/>
<path d="M2470 866 c0 -9 5 -16 10 -16 6 0 10 4 10 9 0 6 -4 13 -10 16 -5 3
-10 -1 -10 -9z"/>
<path d="M2510 854 c0 -14 4 -23 10 -19 6 3 10 15 10 26 0 10 -4 19 -10 19 -5
0 -10 -12 -10 -26z"/>
<path d="M2554 856 c-6 -26 2 -66 14 -66 4 0 9 20 10 45 2 48 -14 61 -24 21z"/>
<path d="M2610 835 c0 -49 14 -60 24 -20 6 23 -7 65 -19 65 -3 0 -5 -20 -5
-45z"/>
<path d="M2650 866 c0 -9 5 -16 10 -16 6 0 10 4 10 9 0 6 -4 13 -10 16 -5 3
-10 -1 -10 -9z"/>
<path d="M2690 854 c0 -14 4 -23 10 -19 6 3 10 15 10 26 0 10 -4 19 -10 19 -5
0 -10 -12 -10 -26z"/>
<path d="M2730 866 c0 -9 5 -16 10 -16 6 0 10 4 10 9 0 6 -4 13 -10 16 -5 3
-10 -1 -10 -9z"/>
<path d="M2770 854 c0 -14 4 -23 10 -19 6 3 10 15 10 26 0 10 -4 19 -10 19 -5
0 -10 -12 -10 -26z"/>
<path d="M2352 828 c2 -23 8 -43 13 -45 6 -2 9 15 7 42 -2 25 -8 45 -14 45 -5
0 -8 -19 -6 -42z"/>
<path d="M2213 839 c-17 -17 -16 -34 2 -49 20 -16 22 -12 15 28 -4 27 -7 31
-17 21z"/>
<path d="M2250 836 c0 -9 5 -16 10 -16 6 0 10 4 10 9 0 6 -4 13 -10 16 -5 3
-10 -1 -10 -9z"/>
<path d="M2280 831 c0 -5 12 -16 26 -26 24 -16 26 -16 22 1 -3 17 -48 40 -48
25z"/>
<path d="M2405 790 c3 -5 8 -10 11 -10 2 0 4 5 4 10 0 6 -5 10 -11 10 -5 0 -7
-4 -4 -10z"/>
<path d="M2470 790 c0 -5 14 -10 30 -10 17 0 30 5 30 10 0 6 -13 10 -30 10
-16 0 -30 -4 -30 -10z"/>
<path d="M2650 790 c0 -5 14 -10 30 -10 17 0 30 5 30 10 0 6 -13 10 -30 10
-16 0 -30 -4 -30 -10z"/>
<path d="M2730 790 c0 -5 13 -10 29 -10 17 0 33 5 36 10 4 6 -8 10 -29 10 -20
0 -36 -4 -36 -10z"/>
</g>
</svg>
